<svg width="75" height="75" viewBox="0 0 75 75" fill="none" xmlns="http://www.w3.org/2000/svg">
<path d="M0 0H75L0 75V0Z" fill="#E3463D"/>
<path d="M18.1469 39.7165C17.7947 39.3643 17.4011 39.2193 16.966 39.2814C16.5269 39.3394 15.8805 39.588 15.027 40.0272C14.1694 40.4622 13.4505 40.7668 12.8705 40.9408C11.2878 41.4131 10.0262 41.179 9.08567 40.2385C8.59677 39.7496 8.29846 39.1778 8.19074 38.5232C8.08302 37.8603 8.17831 37.1642 8.47662 36.435C8.77908 35.7017 9.2514 35.0139 9.8936 34.3717C10.5399 33.7254 11.2339 33.2676 11.9756 32.9983C12.713 32.7248 13.434 32.6627 14.1383 32.8118C14.8468 32.9568 15.4724 33.3007 16.0152 33.8435L14.1507 35.7079C13.7364 35.2936 13.2848 35.103 12.7959 35.1361C12.3029 35.1651 11.8202 35.4158 11.3479 35.8881C10.8921 36.3439 10.6352 36.7955 10.5772 37.243C10.5151 37.6863 10.6414 38.0654 10.9563 38.3803C11.2505 38.6744 11.6441 38.7739 12.1371 38.6786C12.6343 38.5791 13.2579 38.3285 14.0078 37.9266C15.3875 37.185 16.5559 36.8079 17.5129 36.7955C18.47 36.7831 19.3007 37.129 20.0051 37.8334C20.7882 38.6164 21.1072 39.5279 20.9622 40.5679C20.813 41.6037 20.2371 42.6229 19.2345 43.6256C18.5384 44.3216 17.7781 44.8292 16.9536 45.1482C16.125 45.4631 15.3378 45.5501 14.592 45.4092C13.8504 45.2642 13.1874 44.8996 12.6033 44.3154L14.4739 42.4448C15.4724 43.4433 16.5683 43.3459 17.7615 42.1527C18.2049 41.7093 18.4617 41.2743 18.5322 40.8475C18.5985 40.4167 18.47 40.0396 18.1469 39.7165Z" fill="white"/>
<path d="M26.773 27.1998C27.6638 28.0906 28.2874 29.0291 28.6437 30.0151C29 31.0012 29.0663 31.9707 28.8425 32.9237C28.623 33.8725 28.1341 34.726 27.3758 35.4842C26.6259 36.2341 25.7766 36.723 24.8278 36.9509C23.879 37.1787 22.9095 37.1207 21.9192 36.7769C20.9249 36.4288 19.9906 35.8218 19.1164 34.9559L18.6689 34.5084C17.7781 33.6177 17.1546 32.6751 16.7982 31.6807C16.4419 30.6781 16.3756 29.7044 16.5994 28.7598C16.8231 27.8068 17.312 26.9533 18.0661 26.1993C18.8201 25.4452 19.6716 24.9584 20.6204 24.7388C21.5691 24.5109 22.5428 24.5772 23.5413 24.9376C24.5398 25.2898 25.4824 25.9092 26.369 26.7959L26.773 27.1998ZM24.4735 28.679C23.5247 27.7302 22.6339 27.1791 21.8012 27.0258C20.9684 26.8725 20.2371 27.1108 19.6073 27.7405C18.9817 28.3661 18.7435 29.0933 18.8926 29.9219C19.0376 30.7464 19.5783 31.631 20.5147 32.5756L20.956 33.0169C21.8799 33.9408 22.7665 34.4877 23.6159 34.6576C24.4652 34.8275 25.209 34.5934 25.847 33.9553C26.4726 33.3297 26.7088 32.6046 26.5555 31.7801C26.398 30.9515 25.8511 30.0649 24.9148 29.1202L24.4735 28.679Z" fill="white"/>
<path d="M32.8138 26.8021L36.7726 22.8433L38.2704 24.341L32.4471 30.1643L23.3984 21.1155L25.2628 19.2511L32.8138 26.8021Z" fill="white"/>
<path d="M39.3456 23.2659L30.2968 14.2171L33.081 11.4329C33.8765 10.6374 34.7673 10.107 35.7534 9.84188C36.7395 9.56843 37.7401 9.58708 38.7552 9.89782C39.7661 10.2044 40.6921 10.7782 41.5332 11.6193L41.9496 12.0357C42.7906 12.8768 43.3645 13.7986 43.6711 14.8013C43.9818 15.7998 44.0025 16.7942 43.7332 17.7844C43.4639 18.7746 42.9356 19.6675 42.1484 20.463L39.3456 23.2659ZM33.6714 13.8629L39.7122 19.9037L40.6134 19.0025C41.3426 18.2733 41.6616 17.4778 41.5705 16.616C41.4793 15.7542 40.9946 14.8759 40.1162 13.9809L39.6377 13.5024C38.7179 12.5826 37.8312 12.0771 36.9777 11.986C36.1201 11.8907 35.3246 12.2097 34.5912 12.9431L33.6714 13.8629Z" fill="white"/>
</svg>
